<svg width="21" height="20" viewBox="0 0 21 20" fill="none" xmlns="http://www.w3.org/2000/svg">
<path d="M1 1H4.45455L6.76909 12.4771C6.84807 12.8718 7.06438 13.2263 7.38015 13.4785C7.69593 13.7308 8.09106 13.8649 8.49636 13.8571H16.8909C17.2962 13.8649 17.6913 13.7308 18.0071 13.4785C18.3229 13.2263 18.5392 12.8718 18.6182 12.4771L20 5.28571H5.31818M8.77273 18.1429C8.77273 18.6162 8.38606 19 7.90909 19C7.43212 19 7.04545 18.6162 7.04545 18.1429C7.04545 17.6695 7.43212 17.2857 7.90909 17.2857C8.38606 17.2857 8.77273 17.6695 8.77273 18.1429ZM18.2727 18.1429C18.2727 18.6162 17.8861 19 17.4091 19C16.9321 19 16.5455 18.6162 16.5455 18.1429C16.5455 17.6695 16.9321 17.2857 17.4091 17.2857C17.8861 17.2857 18.2727 17.6695 18.2727 18.1429Z" stroke="#402909" stroke-linecap="round" stroke-linejoin="round"/>
</svg>
