<svg width="25" height="25" viewBox="0 0 25 25" fill="none" xmlns="http://www.w3.org/2000/svg">
<path d="M19.2405 5.90806H19.252M7.15379 0.728027H18.665C21.8437 0.728027 24.4206 3.30489 24.4206 6.48362V17.9948C24.4206 21.1735 21.8437 23.7504 18.665 23.7504H7.15379C3.97506 23.7504 1.39819 21.1735 1.39819 17.9948V6.48362C1.39819 3.30489 3.97506 0.728027 7.15379 0.728027ZM17.5139 11.514C17.6559 12.472 17.4923 13.4504 17.0462 14.3101C16.6002 15.1697 15.8944 15.8669 15.0293 16.3023C14.1642 16.7377 13.1839 16.8893 12.2277 16.7354C11.2715 16.5815 10.3882 16.1301 9.70333 15.4453C9.0185 14.7604 8.56705 13.8771 8.41319 12.9209C8.25932 11.9647 8.41088 10.9844 8.84631 10.1193C9.28173 9.25419 9.97885 8.54843 10.8385 8.10237C11.6982 7.65631 12.6766 7.49268 13.6346 7.63474C14.6118 7.77965 15.5165 8.235 16.215 8.93355C16.9136 9.6321 17.3689 10.5368 17.5139 11.514Z" stroke="#402909" stroke-width="0.959265" stroke-linecap="round" stroke-linejoin="round"/>
</svg>
