<svg width="24" height="17" viewBox="0 0 24 17" fill="none" xmlns="http://www.w3.org/2000/svg">
<path d="M22.5406 3.348C22.4218 2.88753 22.1799 2.46563 21.8392 2.12491C21.4986 1.78419 21.0713 1.53673 20.6006 1.4075C18.8806 1 12.0006 1 12.0006 1C12.0006 1 5.12057 1 3.40057 1.44631C2.92982 1.57553 2.50255 1.823 2.16192 2.16372C1.82129 2.50444 1.57936 2.92634 1.46057 3.3868C1.14579 5.08042 0.991808 6.79849 1.00057 8.51941C0.989351 10.2533 1.14334 11.9844 1.46057 13.6908C1.59153 14.137 1.83888 14.5428 2.17872 14.8692C2.51855 15.1955 2.93939 15.4313 3.40057 15.5537C5.12057 16 12.0006 16 12.0006 16C12.0006 16 18.8806 16 20.6006 15.5537C21.0713 15.4245 21.4986 15.177 21.8392 14.8363C22.1799 14.4956 22.4218 14.0737 22.5406 13.6132C22.8529 11.9323 23.0069 10.2274 23.0006 8.51941C23.0118 6.78553 22.8578 5.05436 22.5406 3.348Z" stroke="#402909" stroke-linecap="round" stroke-linejoin="round"/>
<path d="M9.75057 11.6921L15.5006 8.51941L9.75057 5.3467V11.6921Z" stroke="#402909" stroke-linecap="round" stroke-linejoin="round"/>
</svg>
